<svg width="20" height="24" viewBox="0 0 20 24" fill="none" xmlns="http://www.w3.org/2000/svg">
<path d="M18.8272 8.18242C18.6886 8.29043 16.2423 9.67537 16.2423 12.7549C16.2423 16.3168 19.3551 17.577 19.4483 17.6082C19.4339 17.685 18.9538 19.3339 17.8071 21.0141C16.7846 22.4926 15.7168 23.9688 14.0923 23.9688C12.4678 23.9688 12.0498 23.0207 10.1745 23.0207C8.34692 23.0207 7.69713 24 6.21122 24C4.7253 24 3.68851 22.6319 2.49643 20.9517C1.11563 18.9787 0 15.9136 0 13.0045C0 8.33843 3.01961 5.86379 5.99144 5.86379C7.57052 5.86379 8.88682 6.90549 9.87822 6.90549C10.8219 6.90549 12.2934 5.80138 14.0899 5.80138C14.7708 5.80138 17.217 5.86379 18.8272 8.18242ZM13.2371 3.82598C13.98 2.94029 14.5056 1.71137 14.5056 0.482448C14.5056 0.312031 14.4912 0.139214 14.4602 0C13.2514 0.0456046 11.8133 0.808881 10.9461 1.81938C10.2652 2.59706 9.62978 3.82598 9.62978 5.07171C9.62978 5.25893 9.66083 5.44614 9.67517 5.50615C9.75161 5.52055 9.87584 5.53735 10.0001 5.53735C11.0846 5.53735 12.4487 4.80768 13.2371 3.82598Z" fill="white"/>
</svg>
