<svg width="17" height="17" viewBox="0 0 17 17" fill="none" xmlns="http://www.w3.org/2000/svg">
<path fill-rule="evenodd" clip-rule="evenodd" d="M14.6076 0.38535C14.9547 0.0382168 15.5175 0.0382168 15.8647 0.38535C16.2118 0.732482 16.2118 1.2953 15.8647 1.64243L9.38208 8.125L15.8647 14.6076C16.2118 14.9547 16.2118 15.5175 15.8647 15.8647C15.5175 16.2118 14.9547 16.2118 14.6076 15.8647L8.125 9.38208L1.64243 15.8647C1.2953 16.2118 0.732482 16.2118 0.38535 15.8647C0.0382167 15.5175 0.0382167 14.9547 0.38535 14.6076L6.86792 8.125L0.38535 1.64243C0.0382178 1.2953 0.0382178 0.732482 0.38535 0.38535C0.732483 0.0382168 1.2953 0.0382168 1.64243 0.38535L8.125 6.86792L14.6076 0.38535Z" fill="black"/>
</svg>
