<svg width="25" height="24" viewBox="0 0 25 24" fill="none" xmlns="http://www.w3.org/2000/svg">
<path d="M10.8686 23.88C5.16863 22.86 0.848633 17.94 0.848633 12C0.848633 5.39999 6.24863 0 12.8486 0C19.4486 0 24.8486 5.39999 24.8486 12C24.8486 17.94 20.5286 22.86 14.8286 23.88L14.1686 23.34H11.5286L10.8686 23.88Z" fill="url(#paint0_linear_97_335)"/>
<path d="M17.5287 15.36L18.0687 12H14.8887V9.66002C14.8887 8.70002 15.2487 7.98002 16.6887 7.98002H18.2487V4.92002C17.4087 4.80002 16.4487 4.68002 15.6087 4.68002C12.8487 4.68002 10.9287 6.36002 10.9287 9.36002V12H7.92871V15.36H10.9287V23.82C11.5887 23.94 12.2487 24 12.9087 24C13.5687 24 14.2287 23.94 14.8887 23.82V15.36H17.5287Z" fill="white"/>
<defs>
<linearGradient id="paint0_linear_97_335" x1="12.8492" y1="23.1653" x2="12.8492" y2="-0.00442066" gradientUnits="userSpaceOnUse">
<stop stop-color="#0062E0"/>
<stop offset="1" stop-color="#19AFFF"/>
</linearGradient>
</defs>
</svg>
