<svg width="28" height="32" viewBox="0 0 28 32" fill="none" xmlns="http://www.w3.org/2000/svg">
<path fill-rule="evenodd" clip-rule="evenodd" d="M13.0606 23.481C13.5851 22.97 14.415 22.97 14.9395 23.481L21.2621 29.6404C21.8013 30.1657 21.8177 31.0338 21.2988 31.5796C20.78 32.1253 19.9223 32.1419 19.3831 31.6167L14.0001 26.3726L8.61696 31.6167C8.07783 32.1419 7.22015 32.1253 6.70128 31.5796C6.18242 31.0338 6.19885 30.1657 6.73798 29.6404L13.0606 23.481Z" fill="black"/>
<path fill-rule="evenodd" clip-rule="evenodd" d="M13.0605 12.7021C13.5851 12.191 14.4149 12.191 14.9395 12.7021L24.4233 21.9412C24.9625 22.4664 24.9789 23.3346 24.46 23.8803C23.9412 24.426 23.0835 24.4427 22.5443 23.9175L14 15.5936L5.45559 23.9175C4.91645 24.4427 4.05877 24.426 3.53991 23.8803C3.02104 23.3346 3.03747 22.4664 3.5766 21.9412L13.0605 12.7021Z" fill="black"/>
<path fill-rule="evenodd" clip-rule="evenodd" d="M13.0605 0.383286C13.5851 -0.127762 14.4149 -0.127762 14.9395 0.383286L27.5847 12.7021C28.1238 13.2273 28.1402 14.0955 27.6214 14.6412C27.1025 15.187 26.2448 15.2036 25.7057 14.6784L14 3.27481L2.29433 14.6784C1.7552 15.2036 0.897517 15.187 0.378651 14.6412C-0.140215 14.0955 -0.123785 13.2273 0.41535 12.7021L13.0605 0.383286Z" fill="black"/>
</svg>
