<svg width="25" height="24" viewBox="0 0 25 24" fill="none" xmlns="http://www.w3.org/2000/svg">
<path d="M13.0935 9.81815V14.4654H19.6835C19.3942 15.96 18.5258 17.2255 17.2234 18.0764L21.1974 21.0982C23.5128 19.0037 24.8487 15.9273 24.8487 12.2728C24.8487 11.4219 24.7708 10.6037 24.626 9.81828L13.0935 9.81815Z" fill="#4285F4"/>
<path d="M6.23104 14.284L5.33474 14.9564L2.16211 17.3782C4.17697 21.2945 8.30658 24 13.0932 24C16.3993 24 19.1711 22.9309 21.1971 21.0982L17.2231 18.0764C16.1322 18.7963 14.7407 19.2328 13.0932 19.2328C9.90954 19.2328 7.20459 17.1273 6.23604 14.2909L6.23104 14.284Z" fill="#34A853"/>
<path d="M2.1621 6.62187C1.32725 8.23635 0.848633 10.0582 0.848633 12C0.848633 13.9418 1.32725 15.7636 2.1621 17.3781C2.1621 17.3889 6.23642 14.2799 6.23642 14.2799C5.99152 13.5599 5.84677 12.7963 5.84677 11.9999C5.84677 11.2034 5.99152 10.4398 6.23642 9.7198L2.1621 6.62187Z" fill="#FBBC05"/>
<path d="M13.0935 4.77818C14.8969 4.77818 16.4998 5.38907 17.78 6.56727L21.2865 3.13095C19.1603 1.18917 16.3997 0 13.0935 0C8.30683 0 4.17697 2.69454 2.16211 6.62183L6.23631 9.72001C7.20472 6.88362 9.9098 4.77818 13.0935 4.77818Z" fill="#EA4335"/>
</svg>
