<svg width="24" height="24" viewBox="0 0 24 24" fill="none" xmlns="http://www.w3.org/2000/svg">
<path d="M0 1.71921C0 0.769972 0.789018 0 1.76237 0H22.0863C23.0596 0 23.8487 0.769972 23.8487 1.71921V22.2808C23.8487 23.2303 23.0596 24 22.0863 24H1.76237C0.789018 24 0 23.2303 0 22.2808V1.71921Z" fill="#006699"/>
<path fill-rule="evenodd" clip-rule="evenodd" d="M7.22925 20.0905V9.25319H3.62712V20.0905H7.22925ZM5.42817 7.77353C6.68431 7.77353 7.46615 6.94134 7.46615 5.90135C7.44274 4.83795 6.68431 4.02885 5.452 4.02885C4.21982 4.02885 3.41418 4.83795 3.41418 5.90135C3.41418 6.94134 4.19586 7.77353 5.40469 7.77353H5.42817Z" fill="white"/>
<path fill-rule="evenodd" clip-rule="evenodd" d="M9.22253 20.0905H12.8246V14.0385C12.8246 13.7146 12.848 13.391 12.9432 13.1595C13.2036 12.5123 13.7963 11.8421 14.7914 11.8421C16.0948 11.8421 16.6162 12.8359 16.6162 14.2928V20.0905H20.218V13.8766C20.218 10.5478 18.4409 8.99888 16.071 8.99888C14.1278 8.99888 13.2747 10.0851 12.8007 10.8249H12.8247V9.25319H9.22263C9.2699 10.2701 9.22253 20.0905 9.22253 20.0905Z" fill="white"/>
</svg>
