<svg width="18" height="18" viewBox="0 0 18 18" fill="none" xmlns="http://www.w3.org/2000/svg">
<path d="M3.87997 3.87997C3.87997 3.87997 6.11998 1.63998 9.31998 1.63998C14.44 1.63998 17 6.11998 17 9.31998C17 12.84 14.44 17 9.31998 17C4.19997 17 1.63994 12.52 1.63994 9.31998" stroke="black" stroke-width="2" stroke-linecap="round"/>
<path d="M3.9821 1.00279C3.98371 0.450511 3.5373 0.00149322 2.98502 -0.0001153C2.43274 -0.0017242 1.98372 0.444685 1.98211 0.996967L3.9821 1.00279ZM2.97059 4.95251L1.9706 4.94959C1.96899 5.50187 2.4154 5.95089 2.96768 5.9525L2.97059 4.95251ZM3.95875 4.95538L3.95584 5.95538L3.95584 5.95538L3.95875 4.95538ZM5.93506 4.96114L5.93215 5.96114L5.93215 5.96114L5.93506 4.96114ZM6.92031 5.96402C7.47259 5.96562 7.9216 5.51921 7.92321 4.96693C7.92482 4.41465 7.47841 3.96563 6.92613 3.96402L6.92031 5.96402ZM1.98211 0.996967L1.9706 4.94959L3.97059 4.95542L3.9821 1.00279L1.98211 0.996967ZM2.96768 5.9525L3.95584 5.95538L3.96166 3.95539L2.97351 3.95251L2.96768 5.9525ZM3.95584 5.95538L4.94399 5.95826L4.94982 3.95827L3.96166 3.95539L3.95584 5.95538ZM4.94399 5.95826L5.93215 5.96114L5.93797 3.96115L4.94982 3.95827L4.94399 5.95826ZM5.93215 5.96114L6.92031 5.96402L6.92613 3.96402L5.93797 3.96115L5.93215 5.96114Z" fill="black"/>
</svg>
