<svg width="17" height="17" viewBox="0 0 17 17" fill="none" xmlns="http://www.w3.org/2000/svg">
<path fill-rule="evenodd" clip-rule="evenodd" d="M6.26736 5.42629C6.75827 5.42772 7.1574 5.03092 7.15882 4.54C7.16025 4.04909 6.76345 3.64996 6.27254 3.64853L5.39418 3.64598L4.89428 3.64452C5.03303 3.54876 5.19013 3.44747 5.36392 3.34609C6.13177 2.89818 7.18526 2.47163 8.40047 2.47163C12.3236 2.47163 14.3382 5.90659 14.3382 8.40937C14.3382 11.1728 12.3439 14.3471 8.40047 14.3471C4.47731 14.3471 2.4627 10.9121 2.4627 8.40937C2.4627 7.91845 2.06474 7.52048 1.57382 7.52048C1.0829 7.52048 0.684936 7.91845 0.684937 8.40937C0.684936 11.5955 3.22145 16.1249 8.40047 16.1249C13.5592 16.1249 16.116 11.9036 16.116 8.40937C16.116 5.22328 13.5795 0.693864 8.40047 0.693865C6.77125 0.693864 5.40697 1.26286 4.46816 1.81049C4.14989 1.99615 3.87594 2.18198 3.65176 2.34752L3.65564 1.01635C3.65707 0.525435 3.26027 0.126312 2.76935 0.124882C2.27844 0.123452 1.87932 0.520257 1.87789 1.01117L1.86765 4.52459C1.86622 5.0155 2.26303 5.41463 2.75394 5.41606L5.389 5.42373L6.26736 5.42629Z" fill="black"/>
</svg>
