<svg width="60" height="32" viewBox="0 0 60 32" fill="none" xmlns="http://www.w3.org/2000/svg">
<path d="M57.6453 27.2711C56.3446 27.2711 55.2906 28.3295 55.2906 29.6356C55.2906 30.9416 56.3446 32 57.6453 32C58.946 32 60 30.9416 60 29.6356C60 28.3295 58.946 27.2711 57.6453 27.2711Z" fill="black"/>
<path d="M48.1185 17.0094H49.6764C49.9019 17.0094 50.0879 16.8213 50.0879 16.5934V13.9932C50.0879 13.7654 49.9006 13.5786 49.6764 13.5786H45.2902C45.0646 13.5786 44.88 13.3945 44.88 13.1667V1.12592C44.88 0.898088 44.6953 0.712642 44.4671 0.712642H41.528C41.3011 0.712642 41.1164 0.898088 41.1164 1.12592V13.1653C41.1164 13.3932 40.9304 13.5773 40.7022 13.5773H37.1141C36.8266 13.5773 36.7039 13.4064 36.7039 13.1653V1.12592C36.7039 0.898088 36.5179 0.712642 36.291 0.712642H33.3493C33.1211 0.712642 32.9338 0.898088 32.9338 1.12592V13.1653C32.9338 13.3932 32.7504 13.5773 32.5222 13.5773H26.743C26.5135 13.5773 26.3301 13.3932 26.3301 13.1653V10.8804C26.3301 10.6525 26.5148 10.4671 26.743 10.4671H30.2823C30.5277 10.4671 30.6939 10.2711 30.6939 10.079V7.42578C30.6939 7.16748 30.4617 7.0125 30.2084 7.0125H26.743C26.5135 7.0125 26.3301 6.82573 26.3301 6.5979V4.58184C26.3301 4.35401 26.5148 4.16856 26.743 4.16856H30.2467C30.4973 4.16856 30.6939 3.98974 30.6939 3.75528V1.12592C30.6939 0.952397 30.5395 0.712642 30.219 0.712642H21.5443C21.3702 0.712642 21.2171 0.78947 21.043 0.968293L14.3233 7.8788V1.12592C14.3233 0.898088 14.136 0.712642 13.9117 0.712642H10.9595C10.7326 0.712642 10.5479 0.898088 10.5479 1.12592V2.38828C9.63767 0.675553 7.45713 0 5.76203 0C2.99578 0 0.24668 1.77233 0.24668 4.8865C0.24668 8.00067 2.99314 9.16898 4.15267 9.63921C6.69862 10.7148 7.38853 10.9837 7.38853 12.0818C7.38853 12.8448 6.787 13.674 5.78313 13.674C4.1896 13.674 4.08671 11.8235 4.08671 11.8235C4.07088 11.5586 3.89939 11.4102 3.65139 11.4102H0.411573C0.163574 11.4102 0 11.5811 0 11.7612C0 12.1149 0.00659572 13.0037 0.353531 13.8806C0.778296 14.9536 1.30068 15.3933 1.30068 15.3933C1.30068 15.3933 1.07906 15.3894 0.747955 15.3894C0.41685 15.3894 0.240084 15.5417 0.240084 15.8556V31.29C0.240084 31.5179 0.395744 31.7033 0.662211 31.7033H13.9091C14.1346 31.7033 14.3206 31.5377 14.3206 31.29V25.6843C14.3206 25.4246 14.4869 25.2697 14.7322 25.2697H18.2728C18.4997 25.2697 18.6844 25.0961 18.6844 24.8564V22.231C18.6844 21.9647 18.4997 21.8151 18.2728 21.8151H14.7322C14.4895 21.8151 14.3206 21.6614 14.3206 21.4018V19.2546C14.3206 19.0095 14.471 18.84 14.7322 18.84H22.1458C22.3964 18.84 22.5574 18.9976 22.5574 19.2546V31.2913C22.5574 31.5192 22.7421 31.7046 22.9676 31.7046H25.912C26.1389 31.7046 26.3249 31.5192 26.3249 31.2913V19.2546C26.3249 18.9923 26.4911 18.84 26.7378 18.84H29.7322C29.9894 18.84 30.1438 19.0095 30.1438 19.2546V31.2913C30.1438 31.5443 30.306 31.7046 30.5343 31.7046H41.2853C41.5518 31.7046 41.809 31.5801 41.9106 31.3125L42.954 28.5706C43.0305 28.3573 43.1637 28.25 43.3893 28.25H47.9892C48.2543 28.25 48.3401 28.3693 48.41 28.5852L49.435 31.2715C49.5484 31.5576 49.7212 31.7007 50.0207 31.7007H53.0534C53.3687 31.7007 53.5177 31.4039 53.432 31.1867L48.1185 17.0094ZM4.30965 4.84146C4.30965 4.05729 5.02462 3.54202 5.76071 3.54202C7.05611 3.54202 7.22232 4.74477 7.22232 4.74477C7.25398 4.99512 7.39117 5.1554 7.69062 5.1554H10.1376C10.3645 5.1554 10.5452 5.29713 10.5452 5.55411V9.54252C10.0638 8.83517 9.08891 8.0616 7.593 7.37545C4.62888 6.01772 4.30965 5.8283 4.30965 4.84279V4.84146ZM10.5452 27.7281C10.5452 28.1043 10.3606 28.2474 10.1337 28.2474H4.42177C4.17773 28.2474 4.00888 28.0964 4.00888 27.8315V25.6816C4.00888 25.4246 4.17246 25.267 4.42177 25.267H7.96236C8.20772 25.267 8.37393 25.1054 8.37393 24.8537V22.227C8.37393 21.9528 8.19849 21.8137 7.96236 21.8137H4.42177C4.15795 21.8137 4.00888 21.6349 4.00888 21.3991V19.2533C4.00888 18.9963 4.16322 18.8387 4.42177 18.8387H7.96236C8.20244 18.8387 8.37393 18.6797 8.37393 18.4227V17.1988C8.37393 16.959 8.50849 16.8517 8.64436 16.7868C10.1297 16.0914 10.5466 15.0304 10.5466 15.0304L10.5439 27.7295L10.5452 27.7281ZM14.7335 15.392C14.475 15.392 14.322 15.2291 14.322 14.9787L14.3193 10.0724C14.3193 10.0724 19.5669 15.392 19.5471 15.392H14.7335ZM22.5666 13.5773L18.224 9.23256C18.0419 9.05903 18.0459 8.81398 18.2293 8.60469L22.5666 4.16723V13.5773ZM39.1918 27.8633C39.1087 28.0752 38.8528 28.2474 38.6259 28.2474H34.3321C34.1039 28.2474 33.9192 28.0606 33.9192 27.8315V25.6816C33.9192 25.4538 34.1039 25.267 34.3321 25.267H37.8713C38.0982 25.267 38.2829 25.0802 38.2829 24.8537V22.227C38.2829 21.9992 38.0969 21.8137 37.8713 21.8137H34.3321C34.1039 21.8137 33.9192 21.6283 33.9192 21.3991V19.2533C33.9192 19.0241 34.1039 18.8387 34.3321 18.8387H37.8713C38.0982 18.8387 38.2829 18.6506 38.2829 18.4227V17.4226C38.2829 17.1935 38.4689 17.0094 38.6945 17.0094H43.2574L39.1892 27.8646L39.1918 27.8633ZM44.198 25.267L45.682 21.2614L47.1779 25.267H44.1966H44.198Z" fill="black"/>
</svg>
